<svg fill="none" height="147" viewBox="0 0 923 147" width="923" xmlns="http://www.w3.org/2000/svg"><circle cx="51.5" cy="52.5" fill="#F56914" r="51.5"/><circle cx="257" cy="52" fill="#F56914" r="52"/><circle cx="462.5" cy="52.5" fill="#F56914" r="51.5"/><circle cx="666.5" cy="52.5" fill="#F56914" r="50.5"/><circle cx="871.5" cy="52.4987" fill="#F56914" r="51.5"/><path d="m103 50.5h820" stroke="#F56914" stroke-width="3"/><path d="m34.6927 121.545v8.455h1.7696v-2.625h1.6699c1.7812 0 3.0176-1.166 3.0176-2.906 0-1.758-1.1895-2.924-2.9297-2.924zm1.7696 1.453h1.289c1.0196 0 1.5996.516 1.5996 1.477 0 .949-.5918 1.464-1.6054 1.464h-1.2832zm5.885 7.002h1.7051v-3.709c0-.838.4922-1.406 1.3477-1.406.7734 0 1.1894.463 1.1894 1.359v3.756h1.7051v-4.16c0-1.553-.8262-2.426-2.2148-2.426-.9493 0-1.6524.445-1.9512 1.184h-.1055v-3.528h-1.6758zm10.1507.141c1.9864 0 3.1817-1.26 3.1817-3.375 0-2.098-1.2129-3.37-3.1817-3.37-1.9687 0-3.1816 1.278-3.1816 3.37 0 2.115 1.1953 3.375 3.1816 3.375zm0-1.395c-.914 0-1.4296-.721-1.4296-1.98 0-1.243.5214-1.975 1.4296-1.975.9024 0 1.4297.732 1.4297 1.975 0 1.254-.5215 1.98-1.4297 1.98zm4.2562 1.254h1.7051v-3.727c0-.849.4863-1.406 1.2773-1.406.8086 0 1.1895.469 1.1895 1.36v3.773h1.7051v-4.178c0-1.547-.7735-2.426-2.209-2.426-.9551 0-1.6113.452-1.9102 1.178h-.1054v-1.037h-1.6524zm10.0101-5.297c.7969 0 1.3125.533 1.3477 1.389h-2.754c.0586-.838.6153-1.389 1.4063-1.389zm1.3828 3.457c-.1816.428-.6445.668-1.3183.668-.8907 0-1.4532-.598-1.4766-1.558v-.088h4.4355v-.522c0-2.051-1.125-3.264-3.0293-3.264-1.9218 0-3.1054 1.301-3.1054 3.405 0 2.097 1.1601 3.34 3.1289 3.34 1.582 0 2.6953-.762 2.9531-1.981zm-38.3258 11.276c0 .996.6094 1.593 1.8633 1.869l1.1719.263c.5683.123.8144.317.8144.633 0 .416-.457.692-1.1191.692-.6797 0-1.0957-.252-1.2246-.692h-1.6641c.1172 1.242 1.1485 1.94 2.8535 1.94 1.6934 0 2.8477-.844 2.8477-2.133 0-.967-.5625-1.494-1.8164-1.77l-1.2129-.263c-.5977-.135-.873-.329-.873-.645 0-.41.4511-.685 1.0605-.685.6328 0 1.0254.257 1.1133.673h1.5762c-.0938-1.236-1.0606-1.922-2.7012-1.922-1.6113 0-2.6895.815-2.6895 2.04zm12.3421.38c-.1406-1.47-1.166-2.42-2.8769-2.42-2.0215 0-3.1582 1.213-3.1582 3.358 0 2.168 1.1426 3.387 3.1582 3.387 1.6816 0 2.7363-.932 2.8769-2.379h-1.5937c-.1289.638-.586.978-1.2832.978-.9141 0-1.4356-.697-1.4356-1.986 0-1.272.5157-1.957 1.4356-1.957.7265 0 1.166.404 1.2832 1.019zm1.016 4.184h1.7051v-3.58c0-.908.6386-1.459 1.5703-1.459.2754 0 .6738.053.8086.105v-1.552c-.1465-.053-.4336-.082-.668-.082-.8203 0-1.4883.492-1.6582 1.136h-.1055v-1.031h-1.6523zm7.5491-5.297c.7969 0 1.3125.533 1.3477 1.389h-2.7539c.0586-.838.6152-1.389 1.4062-1.389zm1.3828 3.457c-.1816.428-.6445.668-1.3183.668-.8907 0-1.4532-.598-1.4766-1.558v-.088h4.4356v-.522c0-2.051-1.125-3.264-3.0293-3.264-1.9219 0-3.1055 1.301-3.1055 3.405 0 2.097 1.1601 3.34 3.1289 3.34 1.582 0 2.6953-.762 2.9531-1.981zm5.516-3.457c.7968 0 1.3125.533 1.3476 1.389h-2.7539c.0586-.838.6152-1.389 1.4063-1.389zm1.3828 3.457c-.1817.428-.6446.668-1.3184.668-.8906 0-1.4531-.598-1.4765-1.558v-.088h4.4355v-.522c0-2.051-1.125-3.264-3.0293-3.264-1.9219 0-3.1055 1.301-3.1055 3.405 0 2.097 1.1602 3.34 3.1289 3.34 1.5821 0 2.6954-.762 2.9532-1.981zm2.721 1.84h1.7051v-3.727c0-.849.4863-1.406 1.2773-1.406.8086 0 1.1895.469 1.1895 1.36v3.773h1.705v-4.178c0-1.547-.7734-2.426-2.2089-2.426-.9551 0-1.6114.452-1.9102 1.178h-.1055v-1.037h-1.6523zm7.0687-4.564c0 .996.6093 1.593 1.8632 1.869l1.1719.263c.5684.123.8145.317.8145.633 0 .416-.4571.692-1.1192.692-.6797 0-1.0957-.252-1.2246-.692h-1.664c.1172 1.242 1.1484 1.94 2.8535 1.94 1.6933 0 2.8476-.844 2.8476-2.133 0-.967-.5625-1.494-1.8164-1.77l-1.2129-.263c-.5976-.135-.873-.329-.873-.645 0-.41.4512-.685 1.0605-.685.6329 0 1.0254.257 1.1133.673h1.5762c-.0938-1.236-1.0606-1.922-2.7012-1.922-1.6113 0-2.6894.815-2.6894 2.04z" fill="#F56914"/><path d="m245.207 130v-6.943h2.537v-1.512h-6.844v1.512h2.537v6.943zm5.293-5.297c.797 0 1.312.533 1.347 1.389h-2.753c.058-.838.615-1.389 1.406-1.389zm1.383 3.457c-.182.428-.645.668-1.319.668-.89 0-1.453-.598-1.476-1.558v-.088h4.435v-.522c0-2.051-1.125-3.264-3.029-3.264-1.922 0-3.105 1.301-3.105 3.405 0 2.097 1.16 3.34 3.128 3.34 1.582 0 2.696-.762 2.954-1.981zm5.053.656c-.592 0-1.008-.293-1.008-.773 0-.463.357-.727 1.09-.779l1.306-.082v.474c0 .656-.597 1.16-1.388 1.16zm-.563 1.284c.838 0 1.541-.352 1.875-.944h.106v.844h1.652v-4.412c0-1.383-.967-2.192-2.678-2.192-1.623 0-2.718.75-2.83 1.946h1.571c.14-.387.55-.598 1.166-.598.703 0 1.089.305 1.089.844v.527l-1.564.094c-1.606.094-2.502.773-2.502 1.945 0 1.184.873 1.946 2.115 1.946zm4.989-.1h1.705v-3.891c0-.72.474-1.242 1.142-1.242s1.067.393 1.067 1.078v4.055h1.64v-3.955c0-.686.446-1.178 1.137-1.178.721 0 1.078.381 1.078 1.149v3.984h1.705v-4.436c0-1.33-.802-2.168-2.091-2.168-.903 0-1.647.475-1.946 1.196h-.105c-.258-.75-.879-1.196-1.787-1.196-.85 0-1.524.458-1.787 1.196h-.106v-1.055h-1.652zm-34.278 14h1.705v-6.463h-1.705zm.856-7.365c.609 0 1.008-.358 1.008-.862 0-.509-.399-.861-1.008-.861-.615 0-1.008.352-1.008.861 0 .504.393.862 1.008.862zm2.258 7.365h1.705v-3.727c0-.849.486-1.406 1.277-1.406.809 0 1.19.469 1.19 1.36v3.773h1.705v-4.178c0-1.547-.774-2.426-2.209-2.426-.955 0-1.611.452-1.91 1.178h-.106v-1.037h-1.652zm7.701-7.998v1.6h-1.007v1.341h1.007v3.311c0 1.26.622 1.769 2.192 1.769.328 0 .644-.035.855-.076v-1.301c-.164.018-.281.024-.504.024-.58 0-.837-.258-.837-.82v-2.907h1.341v-1.341h-1.341v-1.6zm6.899 2.701c.797 0 1.313.533 1.348 1.389h-2.754c.059-.838.615-1.389 1.406-1.389zm1.383 3.457c-.182.428-.645.668-1.318.668-.891 0-1.453-.598-1.477-1.558v-.088h4.436v-.522c0-2.051-1.125-3.264-3.03-3.264-1.922 0-3.105 1.301-3.105 3.405 0 2.097 1.16 3.34 3.129 3.34 1.582 0 2.695-.762 2.953-1.981zm2.721 1.84h1.705v-3.58c0-.908.639-1.459 1.57-1.459.276 0 .674.053.809.105v-1.552c-.146-.053-.434-.082-.668-.082-.82 0-1.488.492-1.658 1.136h-.106v-1.031h-1.652zm10.842-6.463h-1.799l-1.324 4.817h-.105l-1.336-4.817h-1.834l2.244 6.463h1.922zm.846 6.463h1.705v-6.463h-1.705zm.856-7.365c.609 0 1.007-.358 1.007-.862 0-.509-.398-.861-1.007-.861-.616 0-1.008.352-1.008.861 0 .504.392.862 1.008.862zm5.053 2.068c.797 0 1.312.533 1.347 1.389h-2.754c.059-.838.616-1.389 1.407-1.389zm1.382 3.457c-.181.428-.644.668-1.318.668-.89 0-1.453-.598-1.476-1.558v-.088h4.435v-.522c0-2.051-1.125-3.264-3.029-3.264-1.922 0-3.106 1.301-3.106 3.405 0 2.097 1.161 3.34 3.129 3.34 1.582 0 2.696-.762 2.953-1.981zm11.557-4.623h-1.693l-.961 4.635h-.105l-1.137-4.635h-1.629l-1.131 4.635h-.105l-.961-4.635h-1.729l1.723 6.463h1.793l1.142-4.459h.106l1.154 4.459h1.817zm.577 1.899c0 .996.609 1.593 1.863 1.869l1.172.263c.568.123.815.317.815.633 0 .416-.457.692-1.12.692-.679 0-1.095-.252-1.224-.692h-1.664c.117 1.242 1.148 1.94 2.853 1.94 1.694 0 2.848-.844 2.848-2.133 0-.967-.563-1.494-1.817-1.77l-1.212-.263c-.598-.135-.873-.329-.873-.645 0-.41.451-.685 1.06-.685.633 0 1.025.257 1.113.673h1.577c-.094-1.236-1.061-1.922-2.702-1.922-1.611 0-2.689.815-2.689 2.04z" fill="#F56914"/><path d="m443.774 128.488h-3.832v-2.056h3.615v-1.401h-3.615v-1.974h3.832v-1.512h-5.601v8.455h5.601zm4.022-.597 1.201 2.109h1.899l-2.045-3.27 2.027-3.193h-1.863l-1.143 2.121h-.105l-1.143-2.121h-1.957l2.039 3.27-2.027 3.193h1.81l1.201-2.109zm6.448-3.188c.796 0 1.312.533 1.347 1.389h-2.754c.059-.838.616-1.389 1.407-1.389zm1.382 3.457c-.181.428-.644.668-1.318.668-.891 0-1.453-.598-1.477-1.558v-.088h4.436v-.522c0-2.051-1.125-3.264-3.029-3.264-1.922 0-3.106 1.301-3.106 3.405 0 2.097 1.16 3.34 3.129 3.34 1.582 0 2.695-.762 2.953-1.981zm8.44-2.344c-.141-1.47-1.166-2.42-2.877-2.42-2.021 0-3.158 1.213-3.158 3.358 0 2.168 1.143 3.387 3.158 3.387 1.682 0 2.736-.932 2.877-2.379h-1.594c-.129.638-.586.978-1.283.978-.914 0-1.435-.697-1.435-1.986 0-1.272.515-1.957 1.435-1.957.727 0 1.166.404 1.283 1.019zm6.864-2.279h-1.705v3.727c0 .861-.457 1.394-1.307 1.394-.785 0-1.189-.457-1.189-1.347v-3.774h-1.706v4.213c0 1.5.868 2.391 2.262 2.391.979 0 1.582-.428 1.887-1.178h.105v1.037h1.653zm1.877-1.535v1.6h-1.008v1.341h1.008v3.311c0 1.26.621 1.769 2.191 1.769.328 0 .645-.035.856-.076v-1.301c-.164.018-.281.024-.504.024-.58 0-.838-.258-.838-.82v-2.907h1.342v-1.341h-1.342v-1.6zm4.162 7.998h1.705v-6.463h-1.705zm.856-7.365c.609 0 1.008-.358 1.008-.862 0-.509-.399-.861-1.008-.861-.615 0-1.008.352-1.008.861 0 .504.393.862 1.008.862zm8.1.902h-1.799l-1.324 4.817h-.106l-1.336-4.817h-1.834l2.244 6.463h1.922zm3.359 1.166c.797 0 1.313.533 1.348 1.389h-2.754c.059-.838.615-1.389 1.406-1.389zm1.383 3.457c-.181.428-.644.668-1.318.668-.891 0-1.453-.598-1.477-1.558v-.088h4.436v-.522c0-2.051-1.125-3.264-3.029-3.264-1.922 0-3.106 1.301-3.106 3.405 0 2.097 1.16 3.34 3.129 3.34 1.582 0 2.695-.762 2.953-1.981zm-29.218 11.656c-.141-1.47-1.166-2.42-2.877-2.42-2.022 0-3.158 1.213-3.158 3.358 0 2.168 1.142 3.387 3.158 3.387 1.681 0 2.736-.932 2.877-2.379h-1.594c-.129.638-.586.978-1.283.978-.914 0-1.436-.697-1.436-1.986 0-1.272.516-1.957 1.436-1.957.726 0 1.166.404 1.283 1.019zm3.348 3c-.592 0-1.008-.293-1.008-.773 0-.463.357-.727 1.09-.779l1.306-.082v.474c0 .656-.597 1.16-1.388 1.16zm-.563 1.284c.838 0 1.541-.352 1.875-.944h.106v.844h1.652v-4.412c0-1.383-.967-2.192-2.678-2.192-1.623 0-2.718.75-2.83 1.946h1.571c.14-.387.55-.598 1.166-.598.703 0 1.089.305 1.089.844v.527l-1.564.094c-1.606.094-2.502.773-2.502 1.945 0 1.184.873 1.946 2.115 1.946zm5.047-.1h1.705v-8.93h-1.705zm3.219 0h1.706v-8.93h-1.706z" fill="#F56914"/><path d="m656.107 121.328c-2.485 0-4.072 1.699-4.072 4.442 0 2.742 1.564 4.447 4.072 4.447 2.502 0 4.06-1.705 4.06-4.447 0-2.737-1.564-4.442-4.06-4.442zm0 1.553c1.377 0 2.256 1.119 2.256 2.889 0 1.763-.879 2.894-2.256 2.894-1.389 0-2.262-1.131-2.262-2.894 0-1.77.891-2.889 2.262-2.889zm5.744 7.119h1.705v-5.057h1.336v-1.341h-1.371v-.534c0-.55.246-.814.914-.814.223 0 .399.017.51.029v-1.207c-.246-.041-.533-.064-.879-.064-1.558 0-2.215.65-2.215 1.933v.657h-1.043v1.341h1.043zm4.637 0h1.705v-5.057h1.336v-1.341h-1.371v-.534c0-.55.246-.814.914-.814.223 0 .399.017.51.029v-1.207c-.246-.041-.533-.064-.879-.064-1.558 0-2.215.65-2.215 1.933v.657h-1.043v1.341h1.043zm6.653-5.297c.797 0 1.312.533 1.348 1.389h-2.754c.058-.838.615-1.389 1.406-1.389zm1.383 3.457c-.182.428-.645.668-1.319.668-.89 0-1.453-.598-1.476-1.558v-.088h4.435v-.522c0-2.051-1.125-3.264-3.029-3.264-1.922 0-3.105 1.301-3.105 3.405 0 2.097 1.16 3.34 3.129 3.34 1.582 0 2.695-.762 2.953-1.981zm2.721 1.84h1.705v-3.58c0-.908.639-1.459 1.57-1.459.276 0 .674.053.809.105v-1.552c-.147-.053-.434-.082-.668-.082-.821 0-1.488.492-1.658 1.136h-.106v-1.031h-1.652z" fill="#F56914"/><path d="m844.186 121.328c-2.484 0-4.072 1.699-4.072 4.442 0 2.742 1.564 4.447 4.072 4.447 2.502 0 4.06-1.705 4.06-4.447 0-2.737-1.564-4.442-4.06-4.442zm0 1.553c1.377 0 2.256 1.119 2.256 2.889 0 1.763-.879 2.894-2.256 2.894-1.389 0-2.262-1.131-2.262-2.894 0-1.77.891-2.889 2.262-2.889zm5.246 7.119h1.705v-3.58c0-.908.639-1.459 1.571-1.459.275 0 .674.053.808.105v-1.552c-.146-.053-.433-.082-.668-.082-.82 0-1.488.492-1.658 1.136h-.105v-1.031h-1.653zm4.919 0h1.705v-6.463h-1.705zm.855-7.365c.609 0 1.008-.358 1.008-.862 0-.509-.399-.861-1.008-.861-.615 0-1.008.352-1.008.861 0 .504.393.862 1.008.862zm5.053 2.068c.797 0 1.313.533 1.348 1.389h-2.754c.058-.838.615-1.389 1.406-1.389zm1.383 3.457c-.182.428-.645.668-1.318.668-.891 0-1.454-.598-1.477-1.558v-.088h4.436v-.522c0-2.051-1.125-3.264-3.03-3.264-1.922 0-3.105 1.301-3.105 3.405 0 2.097 1.16 3.34 3.129 3.34 1.582 0 2.695-.762 2.953-1.981zm2.721 1.84h1.705v-3.727c0-.849.486-1.406 1.277-1.406.809 0 1.19.469 1.19 1.36v3.773h1.705v-4.178c0-1.547-.774-2.426-2.209-2.426-.955 0-1.611.452-1.91 1.178h-.106v-1.037h-1.652zm7.701-7.998v1.6h-1.007v1.341h1.007v3.311c0 1.26.622 1.769 2.192 1.769.328 0 .644-.035.855-.076v-1.301c-.164.018-.281.024-.504.024-.58 0-.837-.258-.837-.82v-2.907h1.341v-1.341h-1.341v-1.6zm6.483 6.814c-.592 0-1.008-.293-1.008-.773 0-.463.358-.727 1.09-.779l1.307-.082v.474c0 .656-.598 1.16-1.389 1.16zm-.562 1.284c.838 0 1.541-.352 1.875-.944h.105v.844h1.653v-4.412c0-1.383-.967-2.192-2.678-2.192-1.623 0-2.719.75-2.83 1.946h1.57c.141-.387.551-.598 1.166-.598.703 0 1.09.305 1.09.844v.527l-1.565.094c-1.605.094-2.502.773-2.502 1.945 0 1.184.874 1.946 2.116 1.946zm5.475-8.098v1.6h-1.008v1.341h1.008v3.311c0 1.26.621 1.769 2.191 1.769.328 0 .645-.035.855-.076v-1.301c-.164.018-.281.024-.503.024-.581 0-.838-.258-.838-.82v-2.907h1.341v-1.341h-1.341v-1.6zm4.162 7.998h1.705v-6.463h-1.705zm.855-7.365c.61 0 1.008-.358 1.008-.862 0-.509-.398-.861-1.008-.861-.615 0-1.007.352-1.007.861 0 .504.392.862 1.007.862zm5.124 7.506c1.986 0 3.181-1.26 3.181-3.375 0-2.098-1.212-3.37-3.181-3.37s-3.182 1.278-3.182 3.37c0 2.115 1.196 3.375 3.182 3.375zm0-1.395c-.914 0-1.43-.721-1.43-1.98 0-1.243.522-1.975 1.43-1.975.902 0 1.43.732 1.43 1.975 0 1.254-.522 1.98-1.43 1.98zm4.256 1.254h1.705v-3.727c0-.849.486-1.406 1.277-1.406.809 0 1.19.469 1.19 1.36v3.773h1.705v-4.178c0-1.547-.773-2.426-2.209-2.426-.955 0-1.611.452-1.91 1.178h-.106v-1.037h-1.652z" fill="#F56914"/><path d="m871.5 29.9987c-12.411 0-22.5 10.0894-22.5 22.5 0 12.4105 10.089 22.5 22.5 22.5s22.5-10.0895 22.5-22.5c0-12.4106-10.089-22.5-22.5-22.5zm1.753 41.3526v-3.4579c0-.9947-.806-1.7526-1.753-1.7526-.995 0-1.753.8052-1.753 1.7526v3.4579c-9.047-.8526-16.247-8.0526-17.1-17.1h3.458c.995 0 1.753-.8053 1.753-1.7526 0-.9474-.805-1.7527-1.753-1.7527h-3.458c.853-9.0473 8.053-16.2473 17.1-17.1v3.4579c0 .9948.806 1.7527 1.753 1.7527.995 0 1.753-.8053 1.753-1.7527v-3.4579c9.047.8527 16.247 8.0527 17.1 17.1h-3.458c-.995 0-1.753.8053-1.753 1.7527 0 .9473.805 1.7526 1.753 1.7526h3.458c-.853 9.0474-8.053 16.2474-17.1 17.1z" fill="#fff"/><path d="m875.307 46.3509-6.501 2.8405c-.689.3034-1.24.8549-1.543 1.5444l-2.81 6.4808c-.303.6619-.138 1.434.358 1.958.331.331.771.524 1.24.524.248 0 .468-.0551.716-.1379l6.501-2.8405c.689-.3034 1.24-.8549 1.543-1.5444l2.838-6.5084c.303-.6619.137-1.434-.358-1.958-.551-.4964-1.323-.6619-1.984-.3585zm-8.65 10.976 2.507-5.7638 3.25 3.2542z" fill="#fff"/><g stroke="#fff" stroke-width="2"><path d="m643.918 55.6817h1v-1-8.2241h.306v14.1421h-7.224v-14.1421h2.612v8.2241 1h1zm0 4.612h1v-1-2.306-1h-1-2.306-1v1 2.306 1h1z"/><path d="m676.062 55.6719.174.0245.172-.0364 17.971-3.8015c.705-.1218 1.377.3116 1.604.9896.11.6712-.312 1.3127-.936 1.4262l-.144.0261-.13.0661-15.988 8.1194-16.021-.8471-.264-.014-.097.0488-12.874-3.9275v-9.4655l6.178-1.823h12.308c.716 0 1.306.59 1.306 1.306 0 .7161-.59 1.306-1.306 1.306h-8.071-1v1 1.1032l-.11 1.1033-.096.9558.951.134zm-13.823 6.0827s.001-.0007.004-.0017c-.003.0013-.004.0018-.004.0017zm.364-.0017c.003.001.004.0017.004.0017 0 .0001-.001-.0005-.004-.0017z"/><path d="m679.508 43.3047v-.306h.306v.306z"/><path d="m681.814 45.6107v-.306h.306v.306z"/><path d="m679.508 47.9167v-.306h.306v.306z"/><path d="m677.203 45.6107v-.306h.306v.306z"/></g><path d="m481.994 74.5199h-39.993c-1.46 0-2.647-1.1874-2.647-2.6477v-17.8151h2.083v17.8151c0 .3063.258.5646.564.5646h39.995c.3 0 .564-.2646.564-.5646v-18.0818h2.083v18.0818c-.002 1.4582-1.189 2.6477-2.649 2.6477z" fill="#fff"/><path d="m470.296 38.273h-2.084v-4.6038c0-.8604-.727-1.5874-1.587-1.5874h-9.253c-.875 0-1.588.7125-1.588 1.5874v4.6017h-2.083v-4.6017c0-2.0248 1.648-3.6705 3.671-3.6705h9.251c2.023 0 3.671 1.6457 3.671 3.6705v4.6038z" fill="#fff"/><path d="m458.171 58.4172c-7.766-.3875-15.076-2.0707-20.584-4.7413l-.587-.2854.029-13.4259c0-1.4582 1.188-2.6456 2.648-2.6456h44.646c1.46 0 2.648 1.1874 2.648 2.6477l.029 13.0655-.558.2938c-5.639 2.9726-12.522 4.685-20.461 5.0891l-.106-2.081c7.264-.3709 13.828-1.9457 19.036-4.5643l-.025-11.8011c0-.3083-.259-.5666-.565-.5666h-44.646c-.306 0-.565.2583-.565.5646l-.025 12.1135c5.189 2.3894 11.972 3.8976 19.19 4.2559z" fill="#fff"/><path d="m464.883 61.8564h-5.77c-1.065 0-1.931-.8666-1.931-1.9311v-3.958c0-1.0645.866-1.931 1.931-1.931h5.77c1.065 0 1.931.8665 1.931 1.931v3.958c0 1.0645-.866 1.9311-1.931 1.9311zm-5.618-2.0831h5.468v-3.656h-5.468z" fill="#fff"/><path d="m270.488 60.6696v.329h-28.902v-.3285c0-6.012 2.766-9.8048 6.663-11.9342 2.172 1.6665 4.853 2.6809 7.776 2.6809 2.921 0 5.638-.9924 7.823-2.6558 3.874 2.1211 6.64 5.9215 6.64 11.9086zm-22.35-21.5138c0-4.5777 3.528-8.1571 7.887-8.1571 4.39 0 7.922 3.5691 7.936 8.1282-.291 4.8008-3.729 8.1428-7.944 8.2121-4.343-.0043-7.879-3.64-7.879-8.1832zm-7.82 3.7308c0 2.7799-2.153 4.9572-4.818 4.9741-1.434-.097-2.633-.6003-3.472-1.4113-.835-.806-1.384-1.9826-1.409-3.57.004-2.8344 2.179-5.0193 4.849-5.0193 2.673 0 4.85 2.1885 4.85 5.0265zm41.063 0c0 2.7868-2.164 4.968-4.838 4.9742-2.843-.0711-4.791-2.0949-4.835-4.9813.003-2.8401 2.159-5.0194 4.824-5.0194 2.672 0 4.849 2.1885 4.849 5.0265zm-45.913 9.0521c1.727 0 3.356-.4566 4.778-1.2509-1.631 2.7658-2.615 6.1111-2.615 9.9819v.329h-11.631v-3.251c0-3.772 1.603-6.1146 3.927-7.5263 1.59 1.082 3.499 1.7173 5.541 1.7173zm50.532 5.809v3.251h-11.631v-.329c0-3.8647-.97-7.2163-2.6-9.9865 1.415.7951 3.034 1.2555 4.763 1.2555 2.051 0 3.957-.6581 5.543-1.7434 2.314 1.4029 3.925 3.7629 3.925 7.5524z" stroke="#fff" stroke-width="2"/><path clip-rule="evenodd" d="m43.2306 44.5663c4.2438 5.3606 8.7109 10.0511 14.2948 14.0716l1.3402-1.5635c1.7868-1.7869 4.4671-1.5636 6.4773-.2234l8.9343 5.5839c2.457 1.5635 2.2336 5.1372.2234 7.1475l-4.9139 4.9138c-6.4773 6.4774-23.8992-9.8277-28.143-14.0715s-20.5489-21.4423-13.8481-28.143l4.9138-4.9139c1.7869-1.7868 5.3606-2.0102 6.9241.4467l5.5839 8.711c1.3402 2.0102 1.5635 4.6905-.2233 6.4773zm-2.6803-.2233 2.9036-2.9037c.8935-.8934.6701-2.4569 0-3.797l-5.8073-8.711c-.67-1.3401-2.6802-1.1168-3.797 0l-3.5738 3.3504-1.3401 1.5635c-7.3708 7.3708 31.7167 46.6817 39.3109 39.0875l1.3401-1.3401 3.5738-3.5737c.8934-.8935 1.1167-2.9037 0-3.7971l-8.9343-5.5839c-1.3402-.8935-2.6803-1.1168-3.7971 0l-2.6803 2.6802c-6.9241-4.9138-12.2847-10.2744-17.1985-16.9751z" fill="#fff" fill-rule="evenodd"/></svg>