<?xml version="1.0" encoding="UTF-8"?>
<svg width="360px" height="109px" viewBox="0 0 360 109" version="1.1" xmlns="http://www.w3.org/2000/svg" xmlns:xlink="http://www.w3.org/1999/xlink">
  <g id="Flint" stroke="none" stroke-width="1" fill="none" fill-rule="evenodd">
    <g height="50" width="100%"></g>
      <g id="Final" transform="translate(-49.000000, -47.000000)" >
          <g id="Group" transform="translate(49.000000, 43.000000)">
              <g id="Group-Copy-26">
                  <path d="M13.055,110.1 L13.055,65.6805177 L50.855,65.6805177 L50.855,55.149455 L13.055,55.149455 L13.055,21.6660763 L57.605,21.6660763 L57.605,11 L0.5,11 L0.5,110.1 L13.055,110.1 Z M83.46,111.5 C86.835,111.5 88.86,111.129172 90.615,110.511125 L88.86,101.858467 C87.51,102.105686 86.97,102.105686 86.295,102.105686 C84.405,102.105686 82.785,100.745983 82.785,97.2849197 L82.785,11.5 L70.5,11.5 L70.5,96.5432633 C70.5,106.061187 74.28,111.5 83.46,111.5 Z M114.5,25.375 C118.92623,25.375 122,22.375 122,17.75 C122,13.375 118.92623,10.375 114.5,10.375 C110.07377,10.375 107,13.375 107,17.75 C107,22.375 110.07377,25.375 114.5,25.375 Z M121.055,110 L121.055,36.695 L108.77,36.695 L108.77,110 L121.055,110 Z M156.6075,110 L156.6075,56.81 C164.0325,49.385 169.1625,45.605 176.7225,45.605 C186.4425,45.605 190.6275,51.41 190.6275,65.18 L190.6275,110 L202.9125,110 L202.9125,63.56 C202.9125,44.795 195.8925,34.805 180.5025,34.805 C170.5125,34.805 162.9525,40.34 155.9325,47.225 L155.5275,47.225 L154.4475,36.695 L144.3225,36.695 L144.3225,110 L156.6075,110 Z M248.32,111.755 C252.775,111.755 257.635,110.405 261.82,109.055 L259.39,99.875 C256.96,100.82 253.585,101.765 251.02,101.765 C242.515,101.765 239.68,96.635 239.68,87.59 L239.68,46.685 L259.525,46.685 L259.525,36.695 L239.68,36.695 L239.68,16.04 L229.42,16.04 L227.935,36.695 L216.46,37.37 L216.46,46.685 L227.395,46.685 L227.395,87.32 C227.395,101.9 232.66,111.755 248.32,111.755 Z" id="Flint" fill="white" fill-rule="nonzero"></path>
                  <path d="M316.826643,5 L323.064036,7.35191624 C323.992591,7.70204303 324.865017,8.18594115 325.65368,8.78828214 C326.083385,9.11646955 326.407488,9.38403512 326.62599,9.59097887 C327.454395,10.3755659 330.201685,14.2224973 330.599984,14.7087222 C331.562388,15.8835803 333.686989,20.1360142 335.44846,24.6267444 C336.951392,28.4583491 338.144358,32.4875766 338.62356,34.663029 C339.723953,39.6585177 339.510955,47.9210008 338.610169,56.4720395 C338.397404,58.4917943 336.991466,64.3027069 336.152542,68.59375 C336.057194,69.0814502 336.254934,69.0814502 336.745763,68.59375 C338.576398,66.7219554 339.819336,65.334894 340.474576,64.4325658 C342.310974,61.9036718 343.288656,59.5314386 344.009013,57.798205 C345.114913,55.1373255 346.114761,50.2530449 347.008557,43.1453631 L351.539537,43.1453631 C352.298568,49.0234413 352.929376,53.2584717 353.431959,55.8504541 C355.12277,64.5705066 356.865143,71.2942915 356.981965,75.2815795 C357.218278,83.3472617 355.083608,90.0777143 353.431959,94.175195 C351.210452,99.6864046 345.313549,106.998002 337.286061,111.260809 C335.968444,111.960498 327.77285,115.89042 317.797815,114.814764 C311.957378,114.184962 305.563191,111.103957 299.433012,106.605205 C296.462415,104.425174 291.989842,99.0936593 289.086051,90.5591921 C288.289892,88.2192172 287.62358,84.2180991 287.087116,78.555838 L287.087115,78.555838 C287.027842,77.9302216 287.021728,77.3007055 287.068841,76.6740559 C287.372642,72.6331369 287.660429,69.9397016 287.932203,68.59375 C288.928058,63.6618144 290.566702,60.3473645 291.898075,57.743965 C293.303011,54.9967178 295.576548,51.6835659 299.433012,47.6880403 C300.55521,46.5253764 302.591096,44.6430575 305.540668,42.0410834 C310.790362,38.160668 314.552354,34.9199472 316.826643,32.3189211 C319.100933,29.7178949 320.802224,26.7104491 321.930516,23.2965835 C322.553363,21.0126916 322.553363,18.7543408 321.930516,16.521531 C321.307669,14.2887212 319.606378,10.4482109 316.826643,5 Z" id="Path-2-Copy-28" fill="white" transform="translate(322.000000, 60.000000) rotate(-8.000000) translate(-322.000000, -60.000000) "></path>
              </g>
              <text id="TM" font-family="ArialMT, Arial" font-size="15" font-weight="normal" letter-spacing="0.880833333" fill="white">
                  <tspan x="268.290309" y="15">TM</tspan>
              </text>
          </g>
      </g>
  </g>
</svg>