<?xml version="1.0" encoding="UTF-8"?>
<svg width="14px" height="22px" viewBox="0 0 14 22" version="1.1" xmlns="http://www.w3.org/2000/svg" xmlns:xlink="http://www.w3.org/1999/xlink">
    <!-- Generator: Sketch 63.1 (92452) - https://sketch.com -->
    <title>Path 2 Copy 22</title>
    <desc>Created with Sketch.</desc>
    <g id="Flint" stroke="none" stroke-width="1" fill="none" fill-rule="evenodd">
        <g id="Artboard" transform="translate(-787.000000, -656.000000)" fill="#FF7F00">
            <path d="M792.965329,656 L794.212871,656.470408 C794.398586,656.540455 794.57308,656.637242 794.730819,656.75772 C794.816719,656.823328 794.881512,656.87682 794.925198,656.918196 C795.090879,657.075113 795.640337,657.844499 795.719997,657.941744 C795.912478,658.176716 796.337398,659.027203 796.689692,659.925349 C796.990278,660.69167 797.228872,661.497515 797.324712,661.932606 C797.544791,662.931704 797.502191,664.5842 797.322034,666.294408 C797.279481,666.698359 796.998293,667.860541 796.830508,668.71875 C796.811439,668.81629 796.850987,668.81629 796.949153,668.71875 C797.31528,668.344391 797.563867,668.066979 797.694915,667.886513 C798.062195,667.380734 798.257731,666.906288 798.401803,666.559641 C798.622983,666.027465 798.822952,665.050609 799.001711,663.629073 L799.907907,663.629073 C800.059714,664.804688 800.185875,665.651694 800.286392,666.170091 C800.624554,667.914101 800.973029,669.258858 800.996393,670.056316 C801.043656,671.669452 800.616722,673.015543 800.286392,673.835039 C799.84209,674.937281 798.66271,676.3996 797.057212,677.252162 C796.793689,677.3921 795.15457,678.178084 793.159563,677.962953 C791.991476,677.836992 790.712638,677.220791 789.486602,676.321041 C788.892483,675.885035 787.997968,674.818732 787.41721,673.111838 C787.257978,672.643842 787.124715,671.843615 787.017422,670.711157 L787.017424,670.711157 C787.005569,670.586033 787.004346,670.46013 787.013769,670.334801 C787.074529,669.526623 787.132086,668.987939 787.186441,668.71875 C787.385612,667.732363 787.71334,667.069473 787.979615,666.548793 C788.260602,665.999344 788.71531,665.336713 789.486602,664.537608 C789.711042,664.305075 790.118219,663.928611 790.708134,663.408217 C791.758072,662.632134 792.510471,661.983989 792.965329,661.463784 C793.420187,660.943579 793.760445,660.34209 793.986103,659.659317 C794.110673,659.202538 794.110673,658.750868 793.986103,658.304306 C793.861534,657.857744 793.521276,657.089642 792.965329,656 Z" id="Path-2-Copy-22"></path>
        </g>
    </g>
</svg>