<svg width="807" height="708" xmlns="http://www.w3.org/2000/svg"><defs><linearGradient x1="73.351%" y1="86.398%" x2="-8.617%" y2="-18.811%" id="a"><stop stop-color="#0270D7" stop-opacity="0" offset="0%"/><stop stop-color="#00BFFB" offset="51.568%"/><stop stop-color="#0270D7" offset="100%"/></linearGradient><linearGradient x1="50%" y1="0%" x2="50%" y2="100%" id="b"><stop stop-color="#FFF" stop-opacity=".32" offset="0%"/><stop stop-color="#0270D7" stop-opacity="0" offset="100%"/></linearGradient><linearGradient x1="0%" y1="0%" y2="88.353%" id="c"><stop stop-color="#00BFFB" offset="0%"/><stop stop-color="#FFF" stop-opacity="0" offset="100%"/></linearGradient></defs><g fill="#656c73" fill-rule="evenodd"><path d="M548.329 331.135c-10.827-5.575-22.39-9.473-34.118-12.358-11.764-2.804-23.737-4.498-35.687-5.502-23.927-2.09-47.793-1.674-71.383-3.41l-8.853-.65-8.833-.895-4.417-.45c-1.47-.163-2.936-.372-4.404-.557l-8.81-1.14c-11.71-1.755-23.406-3.69-34.983-6.237-5.812-1.164-11.563-2.6-17.33-3.971-2.892-.652-5.738-1.49-8.61-2.227-2.86-.781-5.741-1.48-8.582-2.327-5.687-1.681-11.403-3.266-17.034-5.13-2.822-.912-5.66-1.777-8.47-2.728l-8.41-2.904c-2.812-.942-5.593-1.976-8.37-3.017l-8.34-3.107-8.27-3.29-4.135-1.644-4.098-1.735-8.196-3.474-8.122-3.643c-5.436-2.38-10.755-5.018-16.124-7.545-21.341-10.395-42.111-21.953-62.298-34.423-20.131-12.562-39.717-25.988-58.606-40.308-4.697-3.613-9.433-7.175-14.044-10.893l-6.948-5.538-6.862-5.64a343.29 343.29 0 0 1-6.81-5.7l-6.763-5.75-6.67-5.856c-2.225-1.948-4.447-3.901-6.624-5.902-9.988-9.067-11.182-7.79-1.261 1.388 2.167 2.029 4.378 4.01 6.594 5.986l6.638 5.943 6.732 5.837a339.623 339.623 0 0 0 6.778 5.789l6.83 5.729 6.916 5.628c4.59 3.78 9.306 7.402 13.98 11.079 18.81 14.569 38.32 28.26 58.397 41.096 20.135 12.742 40.87 24.585 62.217 35.266 5.37 2.6 10.69 5.309 16.133 7.762l8.132 3.75 8.21 3.582 4.106 1.789 4.145 1.698 8.29 3.397 8.367 3.213c2.788 1.076 5.577 2.146 8.4 3.123l8.446 3.009c2.82.987 5.673 1.885 8.508 2.832 5.659 1.932 11.406 3.587 17.126 5.333 2.857.884 5.759 1.613 8.636 2.426 2.89.77 5.754 1.642 8.666 2.326 5.808 1.43 11.602 2.934 17.46 4.158 11.67 2.67 23.474 4.714 35.3 6.578l8.9 1.214 4.453.598 4.465.482 8.932.964 8.957.712c23.907 1.898 47.776 1.584 71.289 3.7 11.759 1.016 23.409 2.684 34.785 5.4 11.344 2.794 22.466 6.546 32.785 11.845 1.254.623 2.465 1.236 3.602 1.887a7129.6 7129.6 0 0 0 3.335 1.829c2.085 1.273 4.095 2.352 5.838 3.518.89.557 1.745 1.09 2.562 1.6.799.539 1.562 1.05 2.289 1.54l2.097 1.374 1.839 1.287c1.153.812 2.223 1.464 3.102 2.07a29.24 29.24 0 0 0 2.282 1.45c1.283.717 2.084.936 2.366.659.283-.278.048-1.054-.741-2.328a29.382 29.382 0 0 0-1.603-2.284c-.677-.884-1.568-1.81-2.576-2.89-.511-.532-1.05-1.108-1.646-1.685-.617-.553-1.27-1.138-1.954-1.753-.695-.607-1.417-1.258-2.203-1.9-.806-.617-1.648-1.261-2.528-1.932-1.741-1.38-3.78-2.642-5.936-4.068-1.096-.682-2.263-1.334-3.46-2.03-1.188-.71-2.455-1.367-3.773-2.025" fill-opacity=".32" fill="#ff7f00" transform="rotate(31 293.468 227.547)"/><path d="M325.998 406.651c9.565 7.539 20.17 13.571 31.134 18.641 11.012 4.997 22.442 8.945 33.981 12.21 23.089 6.618 46.596 10.763 69.421 16.969l8.566 2.326 8.5 2.565 4.25 1.283c1.412.442 2.811.927 4.217 1.388l8.43 2.8c11.16 3.958 22.272 8.089 33.15 12.798 5.484 2.252 10.855 4.759 16.255 7.205 2.714 1.192 5.348 2.556 8.026 3.828 2.658 1.313 5.354 2.548 7.98 3.922 5.263 2.736 10.571 5.382 15.743 8.286 2.596 1.434 5.217 2.825 7.793 4.294l7.701 4.456c2.582 1.461 5.115 3.007 7.642 4.558l7.594 4.642 7.49 4.806 3.745 2.404 3.692 2.485 7.383 4.974 7.277 5.126c4.882 3.373 9.6 6.978 14.388 10.483 18.966 14.276 37.149 29.585 54.586 45.678 17.364 16.172 34.028 33.088 49.838 50.75 3.921 4.442 7.89 8.843 11.707 13.372l5.764 6.762 5.66 6.845a343.29 343.29 0 0 1 5.596 6.894l5.543 6.935 5.429 7.022c1.813 2.337 3.621 4.678 5.377 7.058 8.074 10.806 9.49 9.78 1.502-1.122-1.74-2.405-3.532-4.772-5.33-7.134l-5.382-7.1-5.495-7.015a339.623 339.623 0 0 0-5.549-6.976l-5.611-6.927-5.715-6.844c-3.785-4.586-7.723-9.042-11.61-13.543-15.684-17.89-32.223-35.053-49.482-51.484-17.334-16.35-35.428-31.931-54.345-46.49-4.775-3.576-9.481-7.25-14.355-10.697l-7.267-5.233-7.376-5.082-3.69-2.54-3.744-2.458-7.49-4.916-7.6-4.75c-2.531-1.589-5.065-3.171-7.65-4.67l-7.716-4.564c-2.581-1.507-5.21-2.933-7.812-4.404-5.186-2.976-10.512-5.697-15.793-8.503-2.636-1.412-5.346-2.682-8.015-4.029-2.69-1.307-5.335-2.71-8.063-3.937-5.428-2.513-10.829-5.093-16.347-7.413-10.945-4.847-22.142-9.106-33.396-13.193l-8.505-2.89-4.256-1.436-4.29-1.325-8.585-2.65-8.656-2.409c-23.106-6.425-46.596-10.67-69.274-17.234-11.349-3.241-22.466-7.102-33.115-11.94-10.603-4.906-20.804-10.71-29.923-17.881-1.112-.851-2.184-1.684-3.175-2.54a7129.6 7129.6 0 0 0-2.925-2.432c-1.804-1.647-3.571-3.09-5.06-4.567-.768-.717-1.504-1.404-2.21-2.06-.68-.681-1.332-1.33-1.952-1.948l-1.797-1.749-1.56-1.614c-.976-1.017-1.902-1.861-2.65-2.625a29.24 29.24 0 0 0-1.963-1.858c-1.122-.948-1.867-1.316-2.197-1.098-.33.219-.248 1.025.284 2.426.265.7.644 1.55 1.137 2.548.496.997 1.194 2.075 1.978 3.329.4.62.818 1.288 1.294 1.968l1.583 2.094c.567.728 1.151 1.505 1.8 2.285l2.113 2.379c1.446 1.686 3.206 3.314 5.051 5.126.946.878 1.967 1.741 3.008 2.652 1.032.923 2.15 1.811 3.318 2.708" fill-opacity=".48" fill="#ff7f00"/><path d="M279.236 342.842c21.126.122 42.298.388 63.513-.171 21.204-.56 42.464-1.952 63.528-5.152 2.638-.361 5.254-.865 7.877-1.318 2.62-.479 5.253-.885 7.86-1.425 5.207-1.118 10.444-2.105 15.603-3.435 10.382-2.399 20.595-5.457 30.757-8.64l7.567-2.556 3.78-1.288 3.748-1.38 7.493-2.765 7.421-2.952 3.71-1.478 3.673-1.567 7.343-3.135 7.268-3.305 3.633-1.655 3.598-1.73 7.187-3.472 7.115-3.618c4.764-2.372 9.41-4.965 14.108-7.46 9.302-5.16 18.54-10.437 27.578-16.038 18.143-11.088 35.716-23.055 52.924-35.474 34.397-24.886 67.16-51.775 99.673-78.699 9.273-7.68 8.706-8.346-.596-.723-32.704 26.796-65.626 53.476-100.11 78.095-17.25 12.287-34.848 24.107-52.99 35.043-9.036 5.524-18.265 10.724-27.554 15.806-4.69 2.455-9.328 5.01-14.08 7.343l-7.1 3.56-7.168 3.413-3.586 1.701-3.621 1.625-7.243 3.25-7.316 3.078-3.659 1.538-3.693 1.452-7.388 2.895-7.457 2.712-3.73 1.353c-1.245.443-2.506.841-3.759 1.264l-7.527 2.503c-10.102 3.12-20.252 6.11-30.56 8.455-5.124 1.299-10.321 2.264-15.491 3.353-2.586.534-5.2.92-7.8 1.39-2.604.436-5.197.936-7.816 1.284-20.901 3.115-42.04 4.454-63.183 4.986-21.15.53-42.329.255-63.51.15-40.935-.243-40.97 2.912-.02 3.187" fill-opacity=".64" fill="#FFF"/></g></svg>